<?xml version="1.0" encoding="UTF-8" standalone="no"?>
<svg
   width="314.98001"
   height="314.98001"
   viewBox="0 0 83.338543 83.338475"
   fill="#0f0f0f"
   version="1.1"
   id="svg4"
   sodipodi:docname="openai-logo.svg"
   inkscape:version="1.2.2 (1:1.2.2+202305151914+b0a8486541)"
   xmlns:inkscape="http://www.inkscape.org/namespaces/inkscape"
   xmlns:sodipodi="http://sodipodi.sourceforge.net/DTD/sodipodi-0.dtd"
   xmlns="http://www.w3.org/2000/svg"
   xmlns:svg="http://www.w3.org/2000/svg">
  <defs
     id="defs8" />
  <sodipodi:namedview
     id="namedview6"
     pagecolor="#505050"
     bordercolor="#ffffff"
     borderopacity="1"
     inkscape:showpageshadow="0"
     inkscape:pageopacity="0"
     inkscape:pagecheckerboard="1"
     inkscape:deskcolor="#505050"
     showgrid="false"
     inkscape:zoom="1.0234375"
     inkscape:cx="609.22137"
     inkscape:cy="157.80153"
     inkscape:window-width="1920"
     inkscape:window-height="1016"
     inkscape:window-x="0"
     inkscape:window-y="27"
     inkscape:window-maximized="1"
     inkscape:current-layer="svg4" />
  <g
     id="g388">
    <path
       d="m 37.311511,2.9307499e-4 c -9.116,0 -17.215,5.86999992501 -20.038,14.53399992501 -5.860608,1.208072 -10.9186327,4.87819 -13.8849999,10.075 -4.572,7.902 -3.52800001,17.836 2.597,24.609 -1.891,5.673 -1.242,11.881 1.778,17.018 4.5439999,7.93 13.6869999,11.994 22.6339999,10.103 3.962905,4.472529 9.659419,7.02257 15.635,6.999 9.116,0 17.215,-5.87 20.038,-14.534 5.87,-1.214 10.922,-4.883 13.857,-10.075 4.6,-7.902 3.556,-17.836 -2.568,-24.609 v -0.028 c 1.889832,-5.672908 1.241852,-11.885201 -1.778,-17.046 -4.545,-7.902 -13.689,-11.967 -22.607,-10.076 -3.980926,-4.4605564 -9.684412,-6.99859487 -15.663,-6.96999992501 z m 0,5.41899992501 -0.028,0.028 c 3.669,0 7.197,1.27 10.019,3.613 -0.113,0.056 -0.339,0.197 -0.508,0.282 l -16.594,9.567 c -0.847,0.48 -1.355,1.383 -1.355,2.371 v 22.464 l -7.14,-4.12 v -18.57 c -0.0033,-8.625189 6.98082,-15.6227566 15.606,-15.636 z m 19.99,6.54 c 5.597404,-0.01076 10.772679,2.974392 13.566,7.825 1.806,3.161 2.483,6.858 1.862,10.442 -0.113,-0.085 -0.338,-0.197 -0.48,-0.282 l -16.594,-9.596 c -0.849141,-0.480218 -1.887859,-0.480218 -2.737,0 l -19.445,11.232 v -8.241 l 16.058,-9.285 c 2.361018,-1.368826 5.040884,-2.091734 7.77,-2.096 z m -41.043,8.53 v 19.727 c 0,0.988 0.508,1.863 1.355,2.371 l 19.416,11.204 -7.169,4.148 -16.03,-9.257 C 6.37139,44.359427 3.8210703,34.813178 8.1305111,27.346293 9.9562673,24.181614 12.83172,21.75545 16.258511,20.488293 Z m 37.196,4.882 16.058,9.257 c 7.479,4.318 10.018,13.857 5.7,21.336 l 0.028,0.028 c -1.834,3.161 -4.713,5.588 -8.128,6.83 v -19.728 c 0,-0.988 -0.508,-1.891 -1.355,-2.37 l -19.444,-11.233 z m -11.797,6.802 8.185,4.741 v 9.454 l -8.185,4.741 -8.184,-4.741 v -9.454 z m 12.869,7.451 7.14,4.12 v 18.542 c 0,8.636 -6.999,15.635 -15.606,15.635 v -0.028 c -3.641,0 -7.197,-1.27 -9.991,-3.612 0.113,-0.056 0.367,-0.198 0.508,-0.283 l 16.594,-9.567 c 0.847,-0.48 1.383,-1.383 1.354,-2.371 z m -4.657,12.135 v 8.24 l -16.058,9.257 c -7.479,4.29 -17.018,1.75 -21.336,-5.701 h 0.028 c -1.834,-3.133 -2.484,-6.858 -1.863,-10.442 0.113,0.085 0.339,0.197 0.48,0.282 l 16.594,9.596 c 0.849141,0.480218 1.887859,0.480218 2.737,0 z"
       id="path2"
       sodipodi:nodetypes="cccccccccccccccccccscccccccccccccccccsccccccccccccsccccccccccccsccccccccccccccccc" />
  </g>
</svg>
